<svg width="1280" height="354" viewBox="0 0 1280 354" fill="none" xmlns="http://www.w3.org/2000/svg">
<path fill-rule="evenodd" clip-rule="evenodd" d="M1280 333.479L1244.8 341.419C1208.53 349.359 1138.13 365.239 1066.67 341.419C995.2 317.599 924.8 254.08 853.333 238.2C781.867 222.32 711.467 254.08 640 254.08C568.533 254.08 554.467 240.506 483 208.746C411.533 176.986 342.967 254.708 271.5 278.528C200.033 302.348 71.4668 254.08 35.2001 293.78L0 333.479V0H35.2001C71.4668 0 141.867 0 213.333 0C284.8 0 355.2 0 426.667 0C498.133 0 568.533 0 640 0C711.467 0 781.867 0 853.333 0C924.8 0 995.2 0 1066.67 0C1138.13 0 1208.53 0 1244.8 0H1280V333.479Z" fill="url(#paint0_linear_556_17782)"/>
<defs>
<linearGradient id="paint0_linear_556_17782" x1="567.5" y1="-410" x2="534.343" y2="253.218" gradientUnits="userSpaceOnUse">
<stop stop-color="white"/>
<stop offset="0.618118" stop-color="white"/>
<stop offset="1" stop-color="#79EFFF"/>
</linearGradient>
</defs>
</svg>
