<svg width="485" height="302" viewBox="0 0 485 302" fill="none" xmlns="http://www.w3.org/2000/svg">
<path fill-rule="evenodd" clip-rule="evenodd" d="M244.423 0.613972C280.616 -5.19186 308.135 31.5479 336.395 53.0374C360.85 71.6337 376.548 96.2532 398.207 117.555C426.822 145.697 481.213 160.481 484.597 198.793C487.897 236.151 436.312 257.002 413.26 287.983C392.213 316.271 382.32 280.392 345.851 287.983C305.119 296.462 257.756 296.435 217.018 287.983C188.78 282.125 144.287 303.146 115.362 301.951C69.5658 300.059 38.8539 307.632 9.67873 275.278C-17.6557 244.966 22.8039 235.307 38.6828 198.793C51.8282 168.565 82.4831 149.508 107.689 126.562C126.937 109.039 150.222 97.4583 169.358 79.8319C196.743 54.6071 206.148 6.75364 244.423 0.613972Z" fill="url(#paint0_linear_472_12213)"/>
<defs>
<linearGradient id="paint0_linear_472_12213" x1="96.2381" y1="57.8739" x2="339.308" y2="303.964" gradientUnits="userSpaceOnUse">
<stop stop-color="#96E9C6"/>
<stop offset="1" stop-color="white"/>
</linearGradient>
</defs>
</svg>
