<svg width="1280" height="262" viewBox="0 0 1280 262" fill="none" xmlns="http://www.w3.org/2000/svg">
<path fill-rule="evenodd" clip-rule="evenodd" d="M0 15.1875L35.2 9.31105C71.4667 3.43456 141.867 -8.31841 213.333 9.31105C284.8 26.9405 355.2 73.9524 426.667 85.7054C498.133 97.4584 568.533 73.9524 640 73.9524C711.467 73.9524 725.533 83.9983 797 107.504C868.467 131.01 937.033 73.4873 1008.5 55.8579C1079.97 38.2284 1208.53 73.9524 1244.8 44.57L1280 15.1875V262H1244.8C1208.53 262 1138.13 262 1066.67 262C995.2 262 924.8 262 853.333 262C781.867 262 711.467 262 640 262C568.533 262 498.133 262 426.667 262C355.2 262 284.8 262 213.333 262C141.867 262 71.4667 262 35.2 262H0L0 15.1875Z" fill="url(#paint0_linear_480_17280)" fill-opacity="0.25"/>
<defs>
<linearGradient id="paint0_linear_480_17280" x1="603.5" y1="56.2408" x2="600.206" y2="235.662" gradientUnits="userSpaceOnUse">
<stop stop-color="#3E66DF"/>
<stop offset="1" stop-color="white"/>
</linearGradient>
</defs>
</svg>
